<svg width="192" height="196" viewBox="0 0 192 196" fill="none" xmlns="http://www.w3.org/2000/svg">
<path d="M138.839 187.204C131.262 156.444 122.248 139.984 101.684 114.801C84.7801 128.442 73.3501 131.975 49.8947 132.478C55.6833 138.405 62.2828 139.327 77.0526 138.792C66.1144 167.063 56.5404 175.075 31.5789 176.041C35.6263 178.309 37.3304 179.989 43.871 179.984C74.3226 199.065 108.387 200.612 138.839 187.204Z" fill="#F79900"/>
<path d="M0 95.8603C7.94051 -10.8959 133.423 -30.824 181.895 47.8781H171.789L192 92.0722L123.789 134.372L112.421 80.0767L131.368 119.851L181.895 88.9155L148.421 20.0989C125.905 39.3238 116.846 48.7786 108 63.0304C108.298 53.9705 110.6 48.0014 116.842 36.5139L101.684 39.0393C94.0131 40.8764 90.4049 40.7171 84.6316 39.0393C68.4738 47.683 61.8956 53.9374 54.3158 67.4498C42.7332 86.789 40.6159 102.363 44.8421 138.792V144.474C47.3684 166.571 28.4211 169.096 18.9474 155.838C9.4737 142.58 1.56601 124.669 0 101.542V95.8603Z" fill="#F79900"/>
<path d="M84.6316 85.7588V75.6573C77.6667 77.3229 72.6316 85.7588 72.6316 85.7588C76.9283 83.3042 79.4346 83.2471 84.6316 85.7588Z" fill="#F79900"/>
<path d="M121 69.3469L145.447 44L149.195 50.6122L122.659 72.6531L121 69.3469Z" fill="#F79900"/>
<path d="M153.88 60.5306L127.081 81.4694L129.293 85.8775L156.935 66.5184L153.88 60.5306Z" fill="#F79900"/>
<path d="M161.189 74.8571L133.715 94.6939L135.374 98L164 80.3673L161.189 74.8571Z" fill="#F79900"/>
</svg>
